<svg width="800px" height="800px" viewBox="0 0 1000 1000" id="Layer_2" version="1.1" xml:space="preserve" xmlns="http://www.w3.org/2000/svg" xmlns:xlink="http://www.w3.org/1999/xlink" fill="#000000">

  <g id="SVGRepo_bgCarrier" stroke-width="0"/>

    <g id="SVGRepo_tracerCarrier" stroke-linecap="round" stroke-linejoin="round"/>

    <g id="SVGRepo_iconCarrier">

    <path d="M153.644,706.652c0,41.629,33.868,75.497,75.497,75.497h541.72c41.629,0,75.496-33.868,75.496-75.497 c0-35.055-24.017-64.602-56.458-73.061v-39.7h28.087c8.766,0,15.871-7.106,15.871-15.872v-89.257 c0-8.766-7.106-15.872-15.871-15.872H613.728c-8.766,0-15.872-7.106-15.872-15.872v-71.062c0-10.302-4.023-20.196-11.212-27.574 l-15.156-15.555c-7.437-7.633-17.643-11.938-28.3-11.938h-34.292l-171.48-109.938c-6.879-4.41-15.771-4.093-22.318,0.795 l-13.189,9.848c-9.352,6.982-10.573,20.536-2.62,29.078l71.691,76.996l39.623,15.024l-91.475,89.16 c-6.035,5.882-10.118,13.475-11.698,21.752l-16.11,84.389c-1.429,7.483-7.972,12.895-15.59,12.895 c-8.766,0-15.872,7.106-15.872,15.871v1.257c0,8.766,7.106,15.872,15.872,15.872h50.253v37.265H229.14 C187.511,631.155,153.644,665.023,153.644,706.652z M694.224,501.502h80.799c4.695,0,8.5,3.806,8.5,8.5c0,4.695-3.805,8.5-8.5,8.5 h-80.799c-4.694,0-8.5-3.805-8.5-8.5C685.724,505.308,689.53,501.502,694.224,501.502z M694.224,536.752h80.799 c4.695,0,8.5,3.805,8.5,8.5s-3.805,8.5-8.5,8.5h-80.799c-4.694,0-8.5-3.805-8.5-8.5S689.53,536.752,694.224,536.752z M315.486,554.391c0.134-0.568,0.278-1.131,0.389-1.708l16.111-84.389c0.623-3.265,2.211-6.218,4.591-8.538l102.336-99.747 c2.726-2.657,6.323-4.12,10.129-4.12h94.146c0.377,0,0.753,0.015,1.127,0.045c2.37,0.19,3.934,2.568,3.271,4.85l-27.481,94.682 c-5.354,18.447-16.559,34.655-31.926,46.18l-19.348,14.511c-8.579,6.434-15.919,14.373-21.662,23.429l-17.462,27.536 c-0.698,1.1-1.91,1.767-3.213,1.767H388.59l24.939-24.939c0.617,0.069,1.242,0.113,1.877,0.113c9.182,0,16.625-7.443,16.625-16.625 s-7.443-16.625-16.625-16.625c-9.182,0-16.625,7.443-16.625,16.625c0,0.635,0.043,1.26,0.113,1.877L359.32,568.89h-29.064 l86.428-86.428l13.057,13.057c4.042,4.041,10.594,4.041,14.635,0c4.041-4.041,4.041-10.594,0-14.635l-37.22-37.22 c-4.042-4.041-10.594-4.041-14.635,0c-4.042,4.042-4.042,10.594,0,14.635l9.528,9.528L315.486,554.391z M229.14,656.155h541.72 c27.844,0,50.496,22.653,50.496,50.497c0,27.844-22.653,50.497-50.496,50.497H229.14c-27.844,0-50.497-22.653-50.497-50.497 C178.644,678.808,201.296,656.155,229.14,656.155z" style="fill:#92c02c;"/>

        <ellipse cx="239.986" cy="706.652" rx="29.884" ry="29.884" style="fill:#92c02c;" transform="matrix(0.1222 -0.9925 0.9925 0.1222 -490.6939 858.4984)"/>

        <circle cx="314.275" cy="706.652" r="29.884" style="fill:#92c02c;"/>

        <circle cx="388.565" cy="706.652" r="29.884" style="fill:#92c02c;"/>

        <circle cx="462.855" cy="706.652" r="29.884" style="fill:#92c02c;"/>

        <path d="M537.144,736.536c16.505,0,29.884-13.379,29.884-29.884s-13.379-29.884-29.884-29.884 c-16.504,0-29.884,13.379-29.884,29.884S520.64,736.536,537.144,736.536z" style="fill:#92c02c;"/>

        <circle cx="611.435" cy="706.652" r="29.884" style="fill:#92c02c;"/>

        <circle cx="685.724" cy="706.652" r="29.884" style="fill:#92c02c;"/>

        <path d="M760.014,736.536c16.504,0,29.884-13.379,29.884-29.884s-13.379-29.884-29.884-29.884 s-29.884,13.379-29.884,29.884S743.51,736.536,760.014,736.536z" style="fill:#92c02c;"/>

        <path d="M202.856,488.601v26.209c0,8.102,3.145,15.887,8.771,21.717c10.091,10.455,26.054,12.581,38.53,5.133 l19.712-11.769c-4.545-12.363-13.082-22.859-24.26-29.827l-5.624-3.506l-0.239-1.275c-2.228-11.888-7.087-23.126-14.224-32.891 l12.226-63.54c1.137,0.118,2.305,0.254,3.516,0.4c12.671,1.37,24.554,7.34,33.371,16.776c2.27,2.245,4.307,4.759,6.16,7.43c4.254-1.12,9.562-1.654,15.308-1.654c3.285,0,6.313,0.242,9.296,0.645 c-5.734-12.433-18.008-21.104-32.376-24.008l-3.046-0.631L202.856,488.601z" style="fill:#92c02c;"/>

        <path d="M633.783,295.628c-8.684-9.035-20.561-14.308-32.876-14.308c-25.328,0-46.019,20.609-46.019,46.008 s20.692,46.008,46.019,46.008c12.315,0,24.192-5.273,32.876-14.308c9.057-8.663,14.31-20.495,14.31-32.794C648.093,316.123,642.84,304.291,633.783,295.628z M630.837,366.54c-8.384,8.556-20.107,13.373-31.924,13.373c-16.21,0-29.519-13.189-29.519-29.307s13.309-29.307,29.519-29.307c11.818,0,23.54,4.817,31.924,13.373C640.877,350.237,640.877,358.007,630.837,366.54z" style="fill:#92c02c;"/>

  </g>
</svg>
